<?xml version="1.0" encoding="utf-8" ?><svg xmlns="http://www.w3.org/2000/svg" xmlns:xlink="http://www.w3.org/1999/xlink" width="4096" height="4096" viewBox="0 0 4096 4096"><path fill="#FEC705" d="M2651.32 802.63C2659.09 801.121 2668.67 791.041 2675.8 785.092C2667.07 800.672 2642.17 842.434 2638.87 856.023C2633.65 862.226 2606.98 907.207 2601.48 916.2C2569.22 968.573 2537.44 1021.24 2506.13 1074.18C2390.35 1266.65 2274.37 1466.79 2156.01 1656.87L2639.19 1659.56C2593.23 1701.14 2549.15 1746.52 2504.61 1789.89C2410.74 1880.29 2317.91 1971.76 2226.12 2064.28L1671.54 2609.93C1588.08 2691.41 1500.6 2781.06 1415.87 2860.29C1424.56 2842.51 1446.48 2808.98 1457.49 2790.79C1487.02 2742.39 1516.2 2693.77 1545.04 2644.94C1633.2 2494.33 1722.12 2344.15 1811.8 2194.43L1905.06 2040.48C1936.31 1989.72 1967.53 1940.95 1996.49 1888.71C1935.32 1887.08 1868.72 1888.16 1807.21 1888.25L1475.34 1888.83C1483.35 1878.99 1503.01 1861.39 1512.91 1852.11L1581.28 1788.12C1673.43 1702.71 1766.13 1617.89 1859.37 1533.68L2427.02 1009.3C2502.75 939.565 2574.25 871.325 2651.32 802.63Z"/><path fill="#FFFFFF" d="M2301.86 2051.41L2304.14 2053.39C2306.3 2062.3 2305.29 2103.06 2305.28 2115.69L2305.63 2243.7L2305.12 2887L1792.37 2887.5L1789.26 2884.85C1786.83 2868.62 1788.37 2804.42 1788.4 2785.18L1788.52 2566.74C1804.44 2546.42 1833.84 2518.67 1853.08 2499.51C1891 2461.61 1929.11 2423.91 1967.41 2386.4C2079.76 2275.61 2191.24 2163.94 2301.86 2051.41Z"/><path fill="#FFFFFF" d="M1791.35 1212.79C1906.56 1212.06 2021.76 1212.09 2136.97 1212.88C2084.35 1264.28 2022.32 1319.86 1967.74 1369.6C1908.96 1424.41 1847.51 1484.44 1787.99 1537.71C1787.29 1501.29 1784.92 1222.83 1791.35 1212.79Z"/><path fill="#FFFFFF" d="M2025.59 2930.3L2070.98 2930.07C2072.21 3012.45 2071.15 3096.93 2071.2 3179.47C2071.22 3217.11 2072.87 3285.89 2069.88 3321.82C2054.98 3322.12 2039.05 3321.74 2024.07 3321.65L2024.15 3052.08C2024.16 3029.45 2022.85 2946.86 2025.59 2930.3Z"/><path fill="#FFFFFF" d="M2025.77 770.772C2040.22 770.406 2055.77 770.713 2070.31 770.739L2069.99 1041.63C2070 1070.53 2072.34 1143.92 2069.04 1168.66L2024.2 1168.66C2023.18 1125.22 2020.94 783.157 2025.77 770.772Z"/><path fill="#FFFFFF" d="M1791.44 1934.82C1832.45 1934.67 1876.52 1933.72 1917.3 1935C1892.05 1977.96 1862.01 2023.88 1835.38 2066.43C1819.19 2092.28 1803.34 2118.36 1787.85 2144.63C1787.42 2122.05 1787.61 1942.66 1791.44 1934.82Z"/><path fill="#FFFFFF" d="M2301.79 1503.08L2303.23 1503.73C2307.94 1510.97 2305.66 1598.22 2305.57 1613.23C2286.38 1613.83 2263.85 1613.4 2244.44 1613.47L2241.19 1611.54C2239.7 1603.39 2293.55 1516.63 2301.79 1503.08Z"/><path fill="#FEC705" fill-opacity="0.70588237" d="M2651.32 802.63C2657.54 793.07 2686.65 768.24 2697.22 761.033C2686.31 778.508 2647.77 845.252 2638.87 856.023C2642.17 842.434 2667.07 800.672 2675.8 785.092C2668.67 791.041 2659.09 801.121 2651.32 802.63Z"/></svg>